<?xml version="1.0" encoding="UTF-8"?>
<svg id="Layer_2" data-name="Layer 2" xmlns="http://www.w3.org/2000/svg" viewBox="0 0 1465.96 137.71">
  <defs>
    <style>
      .cls-1 {
        fill: #7a7ef5;
      }

      .cls-2 {
        fill: #7dd7f5;
      }

      .cls-3 {
        fill: #20a8eb;
      }

      .cls-4 {
        fill: #7ed6f6;
      }

      .cls-5 {
        fill: #212d98;
      }
    </style>
  </defs>
  <g id="Layer_1-2" data-name="Layer 1">
    <g>
      <polygon class="cls-2" points="0 46.13 79.52 91.58 .41 137.71 0 46.13"/>
      <polygon class="cls-1" points="79.11 0 79.52 91.58 0 46.13 79.11 0"/>
      <polygon class="cls-4" points="79.11 0 158.61 45.43 79.52 91.58 79.11 0"/>
      <polygon class="cls-3" points="158.61 45.43 159.02 137.01 79.52 91.58 158.61 45.43"/>
      <g>
        <path class="cls-5" d="m309.58,127.75l-72.23-21.37-10.53,21.38h-34.14l57.74-111.66h35.57l57.74,111.66h-34.61.44Zm-14.96-30.44l-26.64-53.62-19.46,39.56,46.1,14.06Z"/>
        <path class="cls-5" d="m479.64,101.59v26.16h-107.67V16.1h32.54v85.5h75.13Z"/>
        <path class="cls-5" d="m477.87,16.11v26h125.07v-26h-125.07Zm78.64,111.64V62.66l-32.53-20.55v85.64h32.53Z"/>
        <path class="cls-5" d="m634.34,127.75V16.1h32.54v111.66h-32.54Z"/>
        <path class="cls-5" d="m836.91,16.1v59.02c0,33.98-23.13,56.31-64.76,56.31s-64.92-22.33-64.92-56.31V16.1h32.54v56.47c0,19.46,10.85,32.06,32.38,32.06s32.22-12.6,32.22-32.06V16.1h32.54Z"/>
        <path class="cls-5" d="m1000.08,92.82c0,22.97-21.22,38.6-61.73,38.6-28.71,0-52.8-7.82-70.35-21.85l17.07-20.1c13.24,11.17,31.58,17.39,53.92,17.39,19.14,0,28.71-3.51,28.71-10.85s-8.93-9.57-31.9-11.48c-33.18-2.87-63.33-10.21-63.33-35.09s25.84-37.01,61.25-37.01c23.93,0,45.94,5.74,61.25,16.59l-16.43,20.26c-12.44-8.77-27.44-12.28-44.82-12.44-13.08,0-28.87,2.07-28.87,10.05,0,7.5,12.92,8.45,32.86,10.05,36.53,3.03,62.37,10.21,62.37,35.89Z"/>
        <g>
          <path class="cls-5" d="m1158.08,16.11v111.96h-13.44v-50.38h-92.12v50.38h-13.43V16.11h13.43v48.78h92.12V16.11h13.44Z"/>
          <path class="cls-5" d="m1311.23,16.11v59.17c0,32.63-20.47,56.14-59.02,56.14s-59.17-23.51-59.17-56.14V16.11h13.43v58.38c0,27.5,16.47,44.46,45.75,44.46s45.58-16.96,45.58-44.46V16.11h13.44Z"/>
          <path class="cls-5" d="m1465.96,97.36c0,20.47-16.15,30.71-42.06,30.71h-77.72V16.11h74.53c22.71,0,38.86,9.6,38.86,28.47,0,12.8-7.51,24.63-23.99,25.92,17.42,1.12,30.38,8.15,30.38,26.87Zm-106.51-32.62h59.33c15.99,0,27.35-4.17,27.35-18.23s-11.36-18.24-27.35-18.24h-59.33v36.48Zm92.6,31.66c0-13.91-11.36-19.51-30.55-19.51h-62.05v39.03h62.05c19.2,0,30.55-5.77,30.55-19.52Z"/>
        </g>
      </g>
    </g>
  </g>
</svg>