<?xml version="1.0" encoding="UTF-8"?>
<svg xmlns="http://www.w3.org/2000/svg" width="86" height="23" viewBox="0 0 86 23" fill="none">
  <path d="M67.6328 6.69954V3.60645H70.7104V6.69954H67.6328ZM67.6328 21.7848V8.57148H70.7104V21.7848H67.6328Z" fill="black"></path>
  <path d="M28.3672 17.9388L30.3503 15.7303C31.1617 17.2763 32.9647 18.8538 35.579 18.8538C37.0213 18.8538 37.9529 18.3172 37.9529 17.2131C37.9529 16.109 36.8411 15.6987 35.2184 15.2884L33.2651 14.7835C30.9514 14.2156 28.8179 13.1428 28.8179 10.3346C28.8179 7.52627 31.0116 5.72803 34.3771 5.72803C37.5022 5.72803 39.6959 7.3057 40.5973 9.04095L38.6142 11.2495C37.5925 9.5456 36.03 8.53606 34.1369 8.53606C32.8449 8.53606 31.9733 9.10394 31.9733 10.1451C31.9733 11.2495 32.7546 11.6595 34.7377 12.196L36.5106 12.6693C39.786 13.5526 40.9879 14.9408 40.9879 17.1496C40.9879 20.1787 38.554 21.6932 35.4588 21.6932C32.3636 21.6932 29.479 20.3679 28.3672 17.9383V17.9388Z" fill="black"></path>
  <path d="M0.140625 21.7596V0.588745H3.51108V10.5106C3.99265 8.10911 5.28653 6.05518 8.20578 6.05518C11.787 6.05518 14.0739 9.12014 14.0739 14.0812C14.0739 19.0422 11.7868 22.1072 8.14555 22.1072C5.22654 22.1072 3.99265 20.0533 3.51108 17.6834V21.7596H0.140625ZM6.88154 19.2319C9.0181 19.2319 10.6131 17.5572 10.6131 14.0814C10.6131 10.6057 9.0181 8.93093 6.88154 8.93093C4.50408 8.93093 3.51108 10.6057 3.51108 13.1336V15.0611C3.51108 17.5888 4.50408 19.2319 6.88154 19.2319Z" fill="black"></path>
  <path d="M14.5547 13.7267C14.5547 8.89212 17.4135 5.70068 21.5363 5.70068C25.9298 5.70068 28.3675 8.76564 28.3675 13.0313C28.3675 13.6002 28.3073 14.2637 28.2471 14.5796H17.7746C17.9553 17.3287 19.4898 18.8137 21.807 18.8137C24.3649 18.8137 25.5085 17.4235 26.0503 16.1279L28.1269 18.4029C27.0134 20.1723 25.0272 21.7208 21.7772 21.7208C17.4137 21.7208 14.5547 18.5294 14.5547 13.7264V13.7267ZM17.8047 12.3046H25.3281C25.0874 9.87153 23.7632 8.54432 21.5363 8.54432C19.4599 8.54432 18.0755 9.80829 17.8047 12.3046Z" fill="black"></path>
  <path d="M52.4609 21.667V0.496094H55.8314V10.4179C56.313 8.01646 57.6068 5.96253 60.5261 5.96253C64.1073 5.96253 66.3942 9.02749 66.3942 13.9885C66.3942 18.9496 64.1071 22.0145 60.4659 22.0145C57.5469 22.0145 56.313 19.9606 55.8314 17.5908V21.667H52.4609ZM59.2019 19.139C61.3384 19.139 62.9334 17.4643 62.9334 13.9885C62.9334 10.5128 61.3384 8.83803 59.2019 8.83803C56.8244 8.83803 55.8314 10.5128 55.8314 13.0407V14.9682C55.8314 17.4959 56.8244 19.139 59.2019 19.139Z" fill="black"></path>
  <path d="M71.9531 13.989C71.9531 9.02798 74.2403 5.96302 77.7914 5.96302C80.7104 5.96302 82.0045 8.01695 82.4858 10.4184V0.496582H85.8563V21.6675H82.4858V17.5912C82.0043 19.9611 80.7706 22.015 77.8514 22.015C74.2402 22.015 71.9531 18.9501 71.9531 13.989ZM79.1455 19.1393C81.4928 19.1393 82.4858 17.4961 82.4858 14.9684V13.041C82.4858 10.513 81.4928 8.83827 79.1154 8.83827C77.0089 8.83827 75.4139 10.5447 75.4139 13.9888C75.4139 17.4329 77.0089 19.1393 79.1455 19.1393Z" fill="black"></path>
  <path d="M46.9153 15.9427V3.76703L51.1915 6.44486L51.201 2.98479L46.9153 0.00174291V0H43.4481V0.00846383L39.1719 2.98479L39.1814 6.44486L43.4286 3.81383L43.4232 5.31681H43.4478V16.0652C43.4478 19.0896 44.699 21.2538 46.915 21.7525H51.1984V17.9638H48.7784C47.7494 17.9638 46.915 17.0588 46.915 15.9427H46.9153Z" fill="black"></path>
</svg>
