<svg width="167" height="38" viewBox="0 0 167 38" fill="none" xmlns="http://www.w3.org/2000/svg">
<path d="M101.696 0.380302L111.399 37.5531H104.325L102.92 31.9019H92.8866L91.532 37.5531H84.4582L94.0346 0.380302H101.696ZM94.793 24.7451H101.064L97.9035 12.8521L94.793 24.7451Z" fill="url(#paint0_linear_7_36941)"/>
<path d="M139.044 30.304V37.5327H136.736C132.121 37.5327 127.756 35.6909 124.796 32.4282L120.231 27.5342V37.5532H113.408V0.380302H126.201C133.275 0.380302 139.044 6.43204 139.044 13.852C139.044 20.1142 134.83 25.5345 129.161 26.9027L129.662 27.4816C131.368 29.3234 134.027 30.3759 136.837 30.3759L139.044 30.304ZM120.231 7.53714V20.1142H126.201C129.512 20.1142 132.221 17.3252 132.221 13.852C132.221 10.3788 129.512 7.53714 126.201 7.53714H120.231Z" fill="url(#paint1_linear_7_36941)"/>
<path d="M83.3116 13.6754L75.5443 26.8363L82.7475 37.6197H75.6745L71.8559 31.8459L68.2543 37.6197H61.3115L68.2977 26.4118L61.1379 13.6754H67.8638L72.0729 21.1474L76.4555 13.6754H83.3116Z" fill="url(#paint2_linear_7_36941)"/>
<path d="M44.312 37.567V8.05634H85.7431L88.2276 0.900106H27.957V8.05634H37.4469V37.567H44.312Z" fill="url(#paint3_linear_7_36941)"/>
<path d="M50.7188 37.567H56.6497V22.3859L50.7188 25.6212L50.7188 37.567Z" fill="url(#paint4_linear_7_36941)"/>
<path d="M50.7188 17.1596V22.6348L56.6497 19.3995V13.7584L50.7188 17.1596Z" fill="url(#paint5_linear_7_36941)"/>
<defs>
<linearGradient id="paint0_linear_7_36941" x1="48.258" y1="0.380301" x2="91.5859" y2="68.9977" gradientUnits="userSpaceOnUse">
<stop stop-color="#007BFF"/>
<stop offset="1" stop-color="#1447FF"/>
</linearGradient>
<linearGradient id="paint1_linear_7_36941" x1="48.258" y1="0.380301" x2="91.5859" y2="68.9977" gradientUnits="userSpaceOnUse">
<stop stop-color="#007BFF"/>
<stop offset="1" stop-color="#1447FF"/>
</linearGradient>
<linearGradient id="paint2_linear_7_36941" x1="48.258" y1="0.380301" x2="91.5859" y2="68.9977" gradientUnits="userSpaceOnUse">
<stop stop-color="#007BFF"/>
<stop offset="1" stop-color="#1447FF"/>
</linearGradient>
<linearGradient id="paint3_linear_7_36941" x1="48.258" y1="0.380301" x2="91.5859" y2="68.9977" gradientUnits="userSpaceOnUse">
<stop stop-color="#007BFF"/>
<stop offset="1" stop-color="#1447FF"/>
</linearGradient>
<linearGradient id="paint4_linear_7_36941" x1="48.258" y1="0.380301" x2="91.5859" y2="68.9977" gradientUnits="userSpaceOnUse">
<stop stop-color="#007BFF"/>
<stop offset="1" stop-color="#1447FF"/>
</linearGradient>
<linearGradient id="paint5_linear_7_36941" x1="48.258" y1="0.380301" x2="91.5859" y2="68.9977" gradientUnits="userSpaceOnUse">
<stop stop-color="#007BFF"/>
<stop offset="1" stop-color="#1447FF"/>
</linearGradient>
</defs>
</svg>
